<?xml version="1.0" encoding="UTF-8" standalone="no"?>
<svg xmlns="http://www.w3.org/2000/svg" xmlns:xlink="http://www.w3.org/1999/xlink" focusable="true" height="524.0" id="workspace" preserveAspectRatio="xMinYMin" viewBox="-450.0 -259.0 931.0 524.0" width="931.0">
<path d="M0,0 C-39,0 -78,154 -117,154 -78,157 -39,5 0,7 Z" fill="#007468" fill-opacity="1" stroke="#007468" stroke-opacity="1" stroke-width="1px" style="fill:#007468 " visibility="visible"/>
<path d="M0,0 C-39,0 -78,125 -117,125 -78,128 -39,5 0,7 Z" fill="#007468" fill-opacity="1" stroke="#007468" stroke-opacity="1" stroke-width="1px" style="fill:#007468 " visibility="hidden"/>
<path d="M0,0 C-39,0 -78,96 -117,96 -78,99 -39,5 0,7 Z" fill="#007468" fill-opacity="1" stroke="#007468" stroke-opacity="1" stroke-width="1px" style="fill:#007468 " visibility="hidden"/>
<path d="M0,0 C-39,0 -78,67 -117,67 -78,70 -39,5 0,7 Z" fill="#007468" fill-opacity="1" stroke="#007468" stroke-opacity="1" stroke-width="1px" style="fill:#007468 " visibility="hidden"/>
<rect fill="#CC0033" fill-opacity="0.4" height="41" rx="0" ry="0" stroke="#FF9933" stroke-opacity="0.4" stroke-width="1px" visibility="hidden" width="179" x="-89" y="-20"/>
<path d="M214,214 C198,199.33333333333334 182,184.66666666666666 166,170" fill-opacity="0.4" stroke="#CC0033" stroke-opacity="0.4" stroke-width="1px" style="fill:none " visibility="hidden"/>
<path d="M-154,-116 C-102.66666666666666,-77.33333333333331 -51.33333333333334,-38.66666666666668 0,0" fill-opacity="0.4" stroke="#CC0033" stroke-opacity="0.4" stroke-width="1px" style="fill:none " visibility="hidden"/>
<path d="M166,183 C175,183 180,213 194,213" fill="#007468" fill-opacity="1" stroke="#007468" stroke-opacity="1" stroke-width="1px" style="fill:none " visibility="visible"/>
<path d="M-216,39 C-225,39 -236,38 -245,38" fill="#007468" fill-opacity="1" stroke="#007468" stroke-opacity="1" stroke-width="1px" style="fill:none " visibility="visible"/>
<path d="M0,0 C-39,0 -78,38 -117,38 -78,41 -39,5 0,7 Z" fill="#007468" fill-opacity="1" stroke="#007468" stroke-opacity="1" stroke-width="1px" style="fill:#007468 " visibility="visible"/>
<path d="M166,183 C175,183 186,184 195,184" fill="#007468" fill-opacity="1" stroke="#007468" stroke-opacity="1" stroke-width="1px" style="fill:none " visibility="visible"/>
<path d="M166,183 C175,183 185,155 194,155" fill="#007468" fill-opacity="1" stroke="#007468" stroke-opacity="1" stroke-width="1px" style="fill:none " visibility="visible"/>
<path d="M0,0 C39,0 78,182 117,182 78,185 39,5 0,7 Z" fill="#007468" fill-opacity="1" stroke="#007468" stroke-opacity="1" stroke-width="1px" style="fill:#007468 " visibility="visible"/>
<path d="M0,0 C-39,0 -78,10 -117,10 -78,13 -39,5 0,7 Z" fill="#007468" fill-opacity="1" stroke="#007468" stroke-opacity="1" stroke-width="1px" style="fill:#007468 " visibility="visible"/>
<path d="M225,98 C234,98 244,126 253,126" fill="#007468" fill-opacity="1" stroke="#007468" stroke-opacity="1" stroke-width="1px" style="fill:none " visibility="visible"/>
<path d="M225,98 C234,98 244,97 253,97" fill="#007468" fill-opacity="1" stroke="#007468" stroke-opacity="1" stroke-width="1px" style="fill:none " visibility="visible"/>
<path d="M225,98 C234,98 245,68 254,68" fill="#007468" fill-opacity="1" stroke="#007468" stroke-opacity="1" stroke-width="1px" style="fill:none " visibility="visible"/>
<path d="M0,0 C39,0 79,97 118,97 79,100 39,5 0,7 Z" fill="#007468" fill-opacity="1" stroke="#007468" stroke-opacity="1" stroke-width="1px" style="fill:#007468 " visibility="visible"/>
<path d="M-238,-77 C-247,-77 -258,-19 -267,-19" fill="#007468" fill-opacity="1" stroke="#007468" stroke-opacity="1" stroke-width="1px" style="fill:none " visibility="visible"/>
<path d="M-238,-77 C-247,-77 -258,-48 -267,-48" fill="#007468" fill-opacity="1" stroke="#007468" stroke-opacity="1" stroke-width="1px" style="fill:none " visibility="visible"/>
<path d="M-238,-77 C-247,-77 -258,-77 -267,-77" fill="#007468" fill-opacity="1" stroke="#007468" stroke-opacity="1" stroke-width="1px" style="fill:none " visibility="visible"/>
<path d="M-238,-77 C-247,-77 -258,-106 -267,-106" fill="#007468" fill-opacity="1" stroke="#007468" stroke-opacity="1" stroke-width="1px" style="fill:none " visibility="visible"/>
<path d="M-238,-77 C-247,-77 -258,-135 -267,-135" fill="#007468" fill-opacity="1" stroke="#007468" stroke-opacity="1" stroke-width="1px" style="fill:none " visibility="visible"/>
<path d="M0,0 C-39,0 -78,-77 -117,-77 -78,-74 -39,5 0,7 Z" fill="#007468" fill-opacity="1" stroke="#007468" stroke-opacity="1" stroke-width="1px" style="fill:#007468 " visibility="visible"/>
<path d="M258,-75 C267,-75 277,39 286,39" fill="#007468" fill-opacity="1" stroke="#007468" stroke-opacity="1" stroke-width="1px" style="fill:none " visibility="visible"/>
<path d="M258,-75 C267,-75 278,11 287,11" fill="#007468" fill-opacity="1" stroke="#007468" stroke-opacity="1" stroke-width="1px" style="fill:none " visibility="visible"/>
<path d="M258,-75 C267,-75 278,-18 287,-18" fill="#007468" fill-opacity="1" stroke="#007468" stroke-opacity="1" stroke-width="1px" style="fill:none " visibility="visible"/>
<path d="M258,-75 C267,-75 277,-47 286,-47" fill="#007468" fill-opacity="1" stroke="#007468" stroke-opacity="1" stroke-width="1px" style="fill:none " visibility="visible"/>
<path d="M258,-75 C267,-75 278,-76 287,-76" fill="#007468" fill-opacity="1" stroke="#007468" stroke-opacity="1" stroke-width="1px" style="fill:none " visibility="visible"/>
<path d="M258,-75 C267,-75 277,-105 286,-105" fill="#007468" fill-opacity="1" stroke="#007468" stroke-opacity="1" stroke-width="1px" style="fill:none " visibility="visible"/>
<path d="M258,-75 C267,-75 278,-134 287,-134" fill="#007468" fill-opacity="1" stroke="#007468" stroke-opacity="1" stroke-width="1px" style="fill:none " visibility="visible"/>
<path d="M258,-75 C267,-75 278,-163 287,-163" fill="#007468" fill-opacity="1" stroke="#007468" stroke-opacity="1" stroke-width="1px" style="fill:none " visibility="visible"/>
<path d="M258,-75 C267,-75 277,-190 286,-190" fill="#007468" fill-opacity="1" stroke="#007468" stroke-opacity="1" stroke-width="1px" style="fill:none " visibility="visible"/>
<path d="M0,0 C39,0 78,-75 117,-75 78,-72 39,5 0,7 Z" fill="#007468" fill-opacity="1" stroke="#007468" stroke-opacity="1" stroke-width="1px" style="fill:#007468 " visibility="visible"/>



<g focusable="true" height="100" preserveAspectRatio="none" transform="translate(-87,-18) scale(1,1)" visibility="visible" width="100">
<rect fill="rgb(252,235,192)" fill-opacity="0" height="43" rx="6.45" ry="6.45" stroke="rgb(241,163,39)" stroke-opacity="0" stroke-width="1px" style="cursor: default;" width="172" x="-2" y="-3"/>
<rect fill="rgb(0,116,104)" height="37" rx="5.55" ry="5.55" stroke="rgb(0,116,104)" stroke-width="2px" style="cursor: default;" width="168" x="0" y="0"/>
<text fill="rgb(255,255,255)" font-family="arial" font-size="13" font-style="normal" font-weight="normal" style="cursor: default;" visibility="visible" x="11" y="11">
<tspan dy="1em" x="11">ENTRAIDE &amp; CULTURE</tspan>
</text>
<g focusable="true" height="15" preserveAspectRatio="none" transform="translate(0,11) scale(0,0.15)" width="0"/>
</g>
<g focusable="true" height="100" preserveAspectRatio="none" transform="translate(117,-94) scale(1,1)" visibility="visible" width="100">
<rect fill="rgb(252,235,192)" fill-opacity="0" height="25" rx="3.75" ry="3.75" stroke="rgb(241,163,39)" stroke-opacity="0" stroke-width="1px" width="143" x="-2" y="-3"/>
<line stroke="#007468" stroke-opacity="1" stroke-width="1px" style="cursor: move;" x1="0" x2="139" y1="19" y2="19"/>
<text fill="#444444" font-family="verdana" font-size="10.75" font-style="normal" font-weight="bold" style="cursor: move;" visibility="visible" x="3" y="3">
<tspan dy="1em" x="3">Alphabétisation &amp; FLE</tspan>
</text>
<ellipse cx="142" cy="19" fill="#007468" height="6" rx="3" ry="3" stroke="#007468" stroke-width="1px" style="cursor: default;" visibility="visible" width="6"/>
<g focusable="true" height="13" preserveAspectRatio="none" transform="translate(0,3) scale(0,0.13)" width="0"/>
</g>
<g focusable="true" height="100" preserveAspectRatio="none" transform="translate(286,-209) scale(1,1)" visibility="visible" width="100">
<rect fill="rgb(252,235,192)" fill-opacity="0" height="25" rx="3.75" ry="3.75" stroke="rgb(241,163,39)" stroke-opacity="0" stroke-width="1px" width="79" x="-2" y="-3"/>
<line stroke="#007468" stroke-opacity="1" stroke-width="1px" style="cursor: move;" x1="0" x2="75" y1="19" y2="19"/>
<text fill="#444444" font-family="verdana" font-size="10.75" font-style="normal" font-weight="normal" style="cursor: move;" visibility="visible" x="3" y="3">
<a target="_blank" xlink:href="http://www.lire-et-ecrire.be"><tspan dy="1em" x="3">Lire et Ecrire</tspan></a>
</text>
<ellipse cx="3" cy="3" fill="rgb(224,229,239)" height="6" rx="3" ry="3" stroke="rgb(2,59,185)" stroke-width="1px" style="cursor: default;" visibility="hidden" width="6"/>
<g focusable="true" height="13" preserveAspectRatio="none" transform="translate(0,3) scale(0,0.13)" width="0"/>
</g>
<g focusable="true" height="100" preserveAspectRatio="none" transform="translate(287,-180) scale(1,1)" visibility="visible" width="100">
<rect fill="rgb(252,235,192)" fill-opacity="0" height="23" rx="3.4499999999999997" ry="3.4499999999999997" stroke="rgb(241,163,39)" stroke-opacity="0" stroke-width="1px" width="32" x="-2" y="-3"/>
<line stroke="#007468" stroke-opacity="1" stroke-width="1px" style="cursor: move;" x1="0" x2="28" y1="17" y2="17"/>
<text fill="rgb(82,92,97)" font-family="Arial" font-size="10.75" font-style="normal" font-weight="normal" style="cursor: move;" visibility="visible" x="3" y="3">
<a target="_blank" xlink:href="http://www.f-q-s.be"><tspan dy="1em" x="3">FQS</tspan></a>
</text>
<ellipse cx="3" cy="3" fill="rgb(224,229,239)" height="6" rx="3" ry="3" stroke="rgb(2,59,185)" stroke-width="1px" style="cursor: default;" visibility="hidden" width="6"/>
<g focusable="true" height="11" preserveAspectRatio="none" transform="translate(0,3) scale(0,0.11)" width="0"/>
</g>
<g focusable="true" height="100" preserveAspectRatio="none" transform="translate(287,-153) scale(1,1)" visibility="visible" width="100">
<rect fill="rgb(252,235,192)" fill-opacity="0" height="25" rx="3.75" ry="3.75" stroke="rgb(241,163,39)" stroke-opacity="0" stroke-width="1px" width="116" x="-2" y="-3"/>
<line stroke="#007468" stroke-opacity="1" stroke-width="1px" style="cursor: move;" x1="0" x2="112" y1="19" y2="19"/>
<text fill="rgb(82,92,97)" font-family="verdana" font-size="10.75" font-style="normal" font-weight="normal" style="cursor: move;" visibility="visible" x="3" y="3">
<a target="_blank" xlink:href="https://www.medecinsdumonde.be"><tspan dy="1em" x="3">Médecins du Monde</tspan></a>
</text>
<ellipse cx="3" cy="3" fill="rgb(224,229,239)" height="6" rx="3" ry="3" stroke="rgb(2,59,185)" stroke-width="1px" style="cursor: default;" visibility="hidden" width="6"/>
<g focusable="true" height="13" preserveAspectRatio="none" transform="translate(0,3) scale(0,0.13)" width="0"/>
</g>
<g focusable="true" height="100" preserveAspectRatio="none" transform="translate(286,-124) scale(1,1)" visibility="visible" width="100">
<rect fill="rgb(252,235,192)" fill-opacity="0" height="25" rx="3.75" ry="3.75" stroke="rgb(241,163,39)" stroke-opacity="0" stroke-width="1px" width="25" x="-2" y="-3"/>
<line stroke="#007468" stroke-opacity="1" stroke-width="1px" style="cursor: move;" x1="0" x2="21" y1="19" y2="19"/>
<text fill="#444444" font-family="verdana" font-size="10.75" font-style="normal" font-weight="normal" style="cursor: move;" visibility="visible" x="3" y="3">
<a target="_blank" xlink:href="https://www.fij.be"><tspan dy="1em" x="3">FIJ</tspan></a>
</text>
<ellipse cx="3" cy="3" fill="rgb(224,229,239)" height="6" rx="3" ry="3" stroke="rgb(0, 0, 0)" stroke-width="1px" style="cursor: default;" visibility="hidden" width="6"/>
<g focusable="true" height="13" preserveAspectRatio="none" transform="translate(0,3) scale(0,0.13)" width="0"/>
</g>
<g focusable="true" height="100" preserveAspectRatio="none" transform="translate(287,-95) scale(1,1)" visibility="visible" width="100">
<rect fill="rgb(252,235,192)" fill-opacity="0" height="25" rx="3.75" ry="3.75" stroke="rgb(241,163,39)" stroke-opacity="0" stroke-width="1px" width="76" x="-2" y="-3"/>
<line stroke="#007468" stroke-opacity="1" stroke-width="1px" style="cursor: move;" x1="0" x2="72" y1="19" y2="19"/>
<text fill="#444444" font-family="verdana" font-size="10.75" font-style="normal" font-weight="normal" style="cursor: move;" visibility="visible" x="3" y="3">
<a target="_blank" xlink:href="http://unemaisonenplus.be"><tspan dy="1em" x="3">Maison en +</tspan></a>
</text>
<ellipse cx="3" cy="3" fill="rgb(224,229,239)" height="6" rx="3" ry="3" stroke="rgb(0, 0, 0)" stroke-width="1px" style="cursor: default;" visibility="hidden" width="6"/>
<g focusable="true" height="13" preserveAspectRatio="none" transform="translate(0,3) scale(0,0.13)" width="0"/>
</g>
<g focusable="true" height="100" preserveAspectRatio="none" transform="translate(286,-66) scale(1,1)" visibility="visible" width="100">
<rect fill="rgb(252,235,192)" fill-opacity="0" height="25" rx="3.75" ry="3.75" stroke="rgb(241,163,39)" stroke-opacity="0" stroke-width="1px" width="85" x="-2" y="-3"/>
<line stroke="#007468" stroke-opacity="1" stroke-width="1px" style="cursor: move;" x1="0" x2="81" y1="19" y2="19"/>
<text fill="#444444" font-family="verdana" font-size="10.75" font-style="normal" font-weight="normal" style="cursor: move;" visibility="visible" x="3" y="3">
<a target="_blank" xlink:href="https://www.smalacinema.be"><tspan dy="1em" x="3">Smala Cinédit</tspan></a>
</text>
<ellipse cx="3" cy="3" fill="rgb(224,229,239)" height="6" rx="3" ry="3" stroke="rgb(0, 0, 0)" stroke-width="1px" style="cursor: default;" visibility="hidden" width="6"/>
<g focusable="true" height="13" preserveAspectRatio="none" transform="translate(0,3) scale(0,0.13)" width="0"/>
</g>
<g focusable="true" height="100" preserveAspectRatio="none" transform="translate(287,-37) scale(1,1)" visibility="visible" width="100">
<rect fill="rgb(252,235,192)" fill-opacity="0" height="25" rx="3.75" ry="3.75" stroke="rgb(241,163,39)" stroke-opacity="0" stroke-width="1px" width="144" x="-2" y="-3"/>
<line stroke="#007468" stroke-opacity="1" stroke-width="1px" style="cursor: move;" x1="0" x2="140" y1="19" y2="19"/>
<text fill="#444444" font-family="verdana" font-size="10.75" font-style="normal" font-weight="normal" style="cursor: move;" visibility="visible" x="3" y="3">
<a target="_blank" xlink:href="http://www.vinci.be/fr-be/Pages/Accueil.aspx"><tspan dy="1em" x="3">Institut Libre Marie Haps</tspan></a>
</text>
<ellipse cx="3" cy="3" fill="rgb(224,229,239)" height="6" rx="3" ry="3" stroke="rgb(0, 0, 0)" stroke-width="1px" style="cursor: default;" visibility="hidden" width="6"/>
<g focusable="true" height="13" preserveAspectRatio="none" transform="translate(0,3) scale(0,0.13)" width="0"/>
</g>
<g focusable="true" height="100" preserveAspectRatio="none" transform="translate(287,-8) scale(1,1)" visibility="visible" width="100">
<rect fill="rgb(252,235,192)" fill-opacity="0" height="25" rx="3.75" ry="3.75" stroke="rgb(241,163,39)" stroke-opacity="0" stroke-width="1px" width="62" x="-2" y="-3"/>
<line stroke="#007468" stroke-opacity="1" stroke-width="1px" style="cursor: move;" x1="0" x2="58" y1="19" y2="19"/>
<text fill="#444444" font-family="verdana" font-size="10.75" font-style="normal" font-weight="normal" style="cursor: move;" visibility="visible" x="3" y="3">
<a target="_blank" xlink:href="http://www.article27.be/bruxelles/"><tspan dy="1em" x="3">Article 27</tspan></a>
</text>
<ellipse cx="3" cy="3" fill="rgb(224,229,239)" height="6" rx="3" ry="3" stroke="rgb(0, 0, 0)" stroke-width="1px" style="cursor: default;" visibility="hidden" width="6"/>
<g focusable="true" height="13" preserveAspectRatio="none" transform="translate(0,3) scale(0,0.13)" width="0"/>
</g>
<g focusable="true" height="100" preserveAspectRatio="none" transform="translate(286,20) scale(1,1)" visibility="visible" width="100">
<rect fill="rgb(252,235,192)" fill-opacity="0" height="25" rx="3.75" ry="3.75" stroke="rgb(241,163,39)" stroke-opacity="0" stroke-width="1px" width="129" x="-2" y="-3"/>
<line stroke="#007468" stroke-opacity="1" stroke-width="1px" style="cursor: move;" x1="0" x2="125" y1="19" y2="19"/>
<text fill="#444444" font-family="verdana" font-size="10.75" font-style="normal" font-weight="normal" style="cursor: move;" visibility="visible" x="3" y="3">
<a target="_blank" xlink:href="http://www.haricots.org"><tspan dy="1em" x="3">Le Début des Haricots</tspan></a>
</text>
<ellipse cx="3" cy="3" fill="rgb(224,229,239)" height="6" rx="3" ry="3" stroke="rgb(0, 0, 0)" stroke-width="1px" style="cursor: default;" visibility="hidden" width="6"/>
<g focusable="true" height="13" preserveAspectRatio="none" transform="translate(0,3) scale(0,0.13)" width="0"/>
</g>
<g focusable="true" height="100" preserveAspectRatio="none" transform="translate(-237,-96) scale(1,1)" visibility="visible" width="100">
<rect fill="rgb(252,235,192)" fill-opacity="0" height="25" rx="3.75" ry="3.75" stroke="rgb(241,163,39)" stroke-opacity="0" stroke-width="1px" width="124" x="-2" y="-3"/>
<line stroke="#007468" stroke-opacity="1" stroke-width="1px" style="cursor: move;" x1="0" x2="120" y1="19" y2="19"/>
<text fill="#444444" font-family="verdana" font-size="10.75" font-style="normal" font-weight="bold" style="cursor: move;" visibility="visible" x="3" y="3">
<tspan dy="1em" x="3">Bourse alimentaire</tspan>
</text>
<ellipse cx="-3" cy="19" fill="#007468" height="6" rx="3" ry="3" stroke="#007468" stroke-width="1px" style="cursor: default;" visibility="visible" width="6"/>
<g focusable="true" height="13" preserveAspectRatio="none" transform="translate(0,3) scale(0,0.13)" width="0"/>
</g>
<g focusable="true" height="100" preserveAspectRatio="none" transform="translate(-377,-154) scale(1,1)" visibility="visible" width="100">
<rect fill="rgb(252,235,192)" fill-opacity="0" height="25" rx="3.75" ry="3.75" stroke="rgb(241,163,39)" stroke-opacity="0" stroke-width="1px" width="114" x="-2" y="-3"/>
<line stroke="#007468" stroke-opacity="1" stroke-width="1px" style="cursor: move;" x1="0" x2="110" y1="19" y2="19"/>
<text fill="#444444" font-family="verdana" font-size="10.75" font-style="normal" font-weight="normal" style="cursor: move;" visibility="visible" x="3" y="3">
<a target="_blank" xlink:href="http://www.foodbanks.be"><tspan dy="1em" x="3">Banque alimentaire</tspan></a>
</text>
<ellipse cx="3" cy="3" fill="rgb(224,229,239)" height="6" rx="3" ry="3" stroke="rgb(2,59,185)" stroke-width="1px" style="cursor: default;" visibility="hidden" width="6"/>
<g focusable="true" height="13" preserveAspectRatio="none" transform="translate(0,3) scale(0,0.13)" width="0"/>
</g>
<g focusable="true" height="100" preserveAspectRatio="none" transform="translate(-366,-125) scale(1,1)" visibility="visible" width="100">
<rect fill="rgb(252,235,192)" fill-opacity="0" height="25" rx="3.75" ry="3.75" stroke="rgb(241,163,39)" stroke-opacity="0" stroke-width="1px" width="103" x="-2" y="-3"/>
<line stroke="#007468" stroke-opacity="1" stroke-width="1px" style="cursor: move;" x1="0" x2="99" y1="19" y2="19"/>
<text fill="#444444" font-family="verdana" font-size="10.75" font-style="normal" font-weight="normal" style="cursor: move;" visibility="visible" x="3" y="3">
<a target="_blank" xlink:href="https://www.colruyt.be/fr"><tspan dy="1em" x="3">Colruyt de Forest</tspan></a>
</text>
<ellipse cx="3" cy="3" fill="rgb(224,229,239)" height="6" rx="3" ry="3" stroke="rgb(2,59,185)" stroke-width="1px" style="cursor: default;" visibility="hidden" width="6"/>
<g focusable="true" height="13" preserveAspectRatio="none" transform="translate(0,3) scale(0,0.13)" width="0"/>
</g>
<g focusable="true" height="100" preserveAspectRatio="none" transform="translate(-400,-96) scale(1,1)" visibility="visible" width="100">
<rect fill="rgb(252,235,192)" fill-opacity="0" height="25" rx="3.75" ry="3.75" stroke="rgb(241,163,39)" stroke-opacity="0" stroke-width="1px" width="137" x="-2" y="-3"/>
<line stroke="#007468" stroke-opacity="1" stroke-width="1px" style="cursor: move;" x1="0" x2="133" y1="19" y2="19"/>
<text fill="#444444" font-family="verdana" font-size="10.75" font-style="normal" font-weight="normal" style="cursor: move;" visibility="visible" x="3" y="3">
<a target="_blank" xlink:href="http://tartine-et-boterham.be/boulangerie-patisserie/la-foret-noire"><tspan dy="1em" x="3">Boulangerie Forêt Noire</tspan></a>
</text>
<ellipse cx="3" cy="3" fill="rgb(224,229,239)" height="6" rx="3" ry="3" stroke="rgb(2,59,185)" stroke-width="1px" style="cursor: default;" visibility="hidden" width="6"/>
<g focusable="true" height="13" preserveAspectRatio="none" transform="translate(0,3) scale(0,0.13)" width="0"/>
</g>
<g focusable="true" height="100" preserveAspectRatio="none" transform="translate(-371,-67) scale(1,1)" visibility="visible" width="100">
<rect fill="rgb(252,235,192)" fill-opacity="0" height="25" rx="3.75" ry="3.75" stroke="rgb(241,163,39)" stroke-opacity="0" stroke-width="1px" width="108" x="-2" y="-3"/>
<line stroke="#007468" stroke-opacity="1" stroke-width="1px" style="cursor: move;" x1="0" x2="104" y1="19" y2="19"/>
<text fill="#444444" font-family="verdana" font-size="10.75" font-style="normal" font-weight="normal" style="cursor: move;" visibility="visible" x="3" y="3">
<a target="_blank" xlink:href="http://www.cpasbru.irisnet.be/fr/index.asp?ID=67"><tspan dy="1em" x="3">Plateforme Dream</tspan></a>
</text>
<ellipse cx="3" cy="3" fill="rgb(224,229,239)" height="6" rx="3" ry="3" stroke="rgb(2,59,185)" stroke-width="1px" style="cursor: default;" visibility="hidden" width="6"/>
<g focusable="true" height="13" preserveAspectRatio="none" transform="translate(0,3) scale(0,0.13)" width="0"/>
</g>
<g focusable="true" height="100" preserveAspectRatio="none" transform="translate(-325,-38) scale(1,1)" visibility="visible" width="100">
<rect fill="rgb(252,235,192)" fill-opacity="0" height="25" rx="3.75" ry="3.75" stroke="rgb(241,163,39)" stroke-opacity="0" stroke-width="1px" width="62" x="-2" y="-3"/>
<line stroke="#007468" stroke-opacity="1" stroke-width="1px" style="cursor: move;" x1="0" x2="58" y1="19" y2="19"/>
<text fill="rgb(82,92,97)" font-family="verdana" font-size="10.75" font-style="normal" font-weight="normal" style="cursor: move;" visibility="visible" x="3" y="3">
<a target="_blank" xlink:href="https://www.leradian.be"><tspan dy="1em" x="3">Le Radian</tspan></a>
</text>
<ellipse cx="3" cy="3" fill="rgb(224,229,239)" height="6" rx="3" ry="3" stroke="rgb(2,59,185)" stroke-width="1px" style="cursor: default;" visibility="hidden" width="6"/>
<g focusable="true" height="13" preserveAspectRatio="none" transform="translate(0,3) scale(0,0.13)" width="0"/>
</g>
<g focusable="true" height="100" preserveAspectRatio="none" transform="translate(118,78) scale(1,1)" visibility="visible" width="100">
<rect fill="rgb(252,235,192)" fill-opacity="0" height="25" rx="3.75" ry="3.75" stroke="rgb(241,163,39)" stroke-opacity="0" stroke-width="1px" style="cursor: move;" width="110" x="-2" y="-3"/>
<line stroke="#007468" stroke-opacity="1" stroke-width="1px" style="cursor: move;" x1="0" x2="106" y1="19" y2="19"/>
<text fill="#444444" font-family="verdana" font-size="10.75" font-style="normal" font-weight="bold" style="cursor: move;" visibility="visible" x="3" y="3">
<tspan dy="1em" x="3">Ecole de Devoirs</tspan>
</text>
<ellipse cx="109" cy="19" fill="#007468" height="6" rx="3" ry="3" stroke="#007468" stroke-width="1px" style="cursor: default;" visibility="visible" width="6"/>
<g focusable="true" height="13" preserveAspectRatio="none" transform="translate(0,3) scale(0,0.13)" width="0"/>
</g>
<g focusable="true" height="100" preserveAspectRatio="none" transform="translate(254,49) scale(1,1)" visibility="visible" width="100">
<rect fill="rgb(252,235,192)" fill-opacity="0" height="25" rx="3.75" ry="3.75" stroke="rgb(241,163,39)" stroke-opacity="0" stroke-width="1px" width="62" x="-2" y="-3"/>
<line stroke="#007468" stroke-opacity="1" stroke-width="1px" style="cursor: move;" x1="0" x2="58" y1="19" y2="19"/>
<text fill="#444444" font-family="verdana" font-size="10.75" font-style="normal" font-weight="normal" style="cursor: move;" visibility="visible" x="3" y="3">
<a target="_blank" xlink:href="http://www.article27.be/bruxelles/"><tspan dy="1em" x="3">Article 27</tspan></a>
</text>
<ellipse cx="3" cy="3" fill="rgb(224,229,239)" height="6" rx="3" ry="3" stroke="rgb(2,59,185)" stroke-width="1px" style="cursor: default;" visibility="hidden" width="6"/>
<g focusable="true" height="13" preserveAspectRatio="none" transform="translate(0,3) scale(0,0.13)" width="0"/>
</g>
<g focusable="true" height="100" preserveAspectRatio="none" transform="translate(253,78) scale(1,1)" visibility="visible" width="100">
<rect fill="rgb(252,235,192)" fill-opacity="0" height="25" rx="3.75" ry="3.75" stroke="rgb(241,163,39)" stroke-opacity="0" stroke-width="1px" width="129" x="-2" y="-3"/>
<line stroke="#007468" stroke-opacity="1" stroke-width="1px" style="cursor: move;" x1="0" x2="125" y1="19" y2="19"/>
<text fill="#444444" font-family="verdana" font-size="10.75" font-style="normal" font-weight="normal" style="cursor: move;" visibility="visible" x="3" y="3">
<a target="_blank" xlink:href="http://www.haricots.org"><tspan dy="1em" x="3">Le Début des Haricots</tspan></a>
</text>
<ellipse cx="3" cy="3" fill="rgb(224,229,239)" height="6" rx="3" ry="3" stroke="rgb(2,59,185)" stroke-width="1px" style="cursor: default;" visibility="hidden" width="6"/>
<g focusable="true" height="13" preserveAspectRatio="none" transform="translate(0,3) scale(0,0.13)" width="0"/>
</g>
<g focusable="true" height="100" preserveAspectRatio="none" transform="translate(253,107) scale(1,1)" visibility="visible" width="100">
<rect fill="rgb(252,235,192)" fill-opacity="0" height="25" rx="3.75" ry="3.75" stroke="rgb(241,163,39)" stroke-opacity="0" stroke-width="1px" width="173" x="-2" y="-3"/>
<line stroke="#007468" stroke-opacity="1" stroke-width="1px" style="cursor: move;" x1="0" x2="169" y1="19" y2="19"/>
<text fill="#444444" font-family="verdana" font-size="10.75" font-style="normal" font-weight="normal" style="cursor: move;" visibility="visible" x="3" y="3">
<a target="_blank" xlink:href="http://ccok.be"><tspan dy="1em" x="3">Omar Khayam Centre Culturel</tspan></a>
</text>
<ellipse cx="3" cy="3" fill="rgb(224,229,239)" height="6" rx="3" ry="3" stroke="rgb(2,59,185)" stroke-width="1px" style="cursor: default;" visibility="hidden" width="6"/>
<g focusable="true" height="13" preserveAspectRatio="none" transform="translate(0,3) scale(0,0.13)" width="0"/>
</g>
<g focusable="true" height="100" preserveAspectRatio="none" transform="translate(-215,-9) scale(1,1)" visibility="visible" width="100">
<rect fill="rgb(252,235,192)" fill-opacity="0" height="25" rx="3.75" ry="3.75" stroke="rgb(241,163,39)" stroke-opacity="0" stroke-width="1px" width="102" x="-2" y="-3"/>
<line stroke="#007468" stroke-opacity="1" stroke-width="1px" style="cursor: move;" x1="0" x2="98" y1="19" y2="19"/>
<text fill="rgb(0, 0, 0)" font-family="verdana" font-size="10.75" font-style="normal" font-weight="bold" style="cursor: move;" visibility="visible" x="3" y="3">
<tspan dy="1em" x="3">Vestiaire social</tspan>
</text>
<ellipse cx="3" cy="3" fill="#0a0a08" height="6" rx="3" ry="3" stroke="rgb(2,59,185)" stroke-width="1px" style="cursor: default;" visibility="hidden" width="6"/>
<g focusable="true" height="13" preserveAspectRatio="none" transform="translate(0,3) scale(0,0.13)" width="0"/>
</g>
<g focusable="true" height="100" preserveAspectRatio="none" transform="translate(117,163) scale(1,1)" visibility="visible" width="100">
<rect fill="rgb(252,235,192)" fill-opacity="0" height="25" rx="3.75" ry="3.75" stroke="rgb(241,163,39)" stroke-opacity="0" stroke-width="1px" style="cursor: move;" width="51" x="-2" y="-3"/>
<line stroke="#007468" stroke-opacity="1" stroke-width="1px" style="cursor: move;" x1="0" x2="47" y1="19" y2="19"/>
<text fill="rgb(0, 0, 0)" font-family="verdana" font-size="10.75" font-style="normal" font-weight="bold" style="cursor: move;" visibility="visible" x="3" y="3">
<tspan dy="1em" x="3">N.T.I.C</tspan>
</text>
<ellipse cx="50" cy="19" fill="#007468" height="6" rx="3" ry="3" stroke="#007468" stroke-width="1px" style="cursor: default;" visibility="visible" width="6"/>
<g focusable="true" height="13" preserveAspectRatio="none" transform="translate(0,3) scale(0,0.13)" width="0"/>
</g>
<g focusable="true" height="100" preserveAspectRatio="none" transform="translate(194,136) scale(1,1)" visibility="visible" width="100">
<rect fill="rgb(252,235,192)" fill-opacity="0" height="25" rx="3.75" ry="3.75" stroke="rgb(241,163,39)" stroke-opacity="0" stroke-width="1px" width="39" x="-2" y="-3"/>
<line stroke="#007468" stroke-opacity="1" stroke-width="1px" style="cursor: move;" x1="0" x2="35" y1="19" y2="19"/>
<text fill="rgb(0, 0, 0)" font-family="verdana" font-size="10.75" font-style="normal" font-weight="normal" style="cursor: move;" visibility="visible" x="3" y="3">
<a xlink:href="http://www.cf2m.be" target="_blank"><tspan dy="1em" x="3">CF2M</tspan></a>
</text>
<ellipse cx="3" cy="3" fill="#0a0a08" height="6" rx="3" ry="3" stroke="rgb(2,59,185)" stroke-width="1px" style="cursor: default;" visibility="hidden" width="6"/>
<g focusable="true" height="13" preserveAspectRatio="none" transform="translate(0,3) scale(0,0.13)" width="0"/>
</g>
<g focusable="true" height="100" preserveAspectRatio="none" transform="translate(195,165) scale(1,1)" visibility="visible" width="100">
<rect fill="rgb(252,235,192)" fill-opacity="0" height="25" rx="3.75" ry="3.75" stroke="rgb(241,163,39)" stroke-opacity="0" stroke-width="1px" style="cursor: move;" width="56" x="-2" y="-3"/>
<line stroke="#007468" stroke-opacity="1" stroke-width="1px" style="cursor: move;" x1="0" x2="52" y1="19" y2="19"/>
<text fill="rgb(0, 0, 0)" font-family="verdana" font-size="10.75" font-style="normal" font-weight="normal" style="cursor: move;" visibility="visible" x="3" y="3">
<a target="_blank" xlink:href="http://lebrass.be"><tspan dy="1em" x="3">Le Brass</tspan></a>
</text>
<ellipse cx="3" cy="3" fill="#0a0a08" height="6" rx="3" ry="3" stroke="rgb(2,59,185)" stroke-width="1px" style="cursor: default;" visibility="hidden" width="6"/>
<g focusable="true" height="13" preserveAspectRatio="none" transform="translate(0,3) scale(0,0.13)" width="0"/>
</g>
<g focusable="true" height="100" preserveAspectRatio="none" transform="translate(-215,19) scale(1,1)" visibility="visible" width="100">
<rect fill="rgb(252,235,192)" fill-opacity="0" height="25" rx="3.75" ry="3.75" stroke="rgb(241,163,39)" stroke-opacity="0" stroke-width="1px" style="cursor: move;" width="102" x="-2" y="-3"/>
<line stroke="#007468" stroke-opacity="1" stroke-width="1px" style="cursor: move;" x1="0" x2="98" y1="19" y2="19"/>
<text fill="rgb(0, 0, 0)" font-family="verdana" font-size="10.75" font-style="normal" font-weight="bold" style="cursor: move;" visibility="visible" x="3" y="3">
<tspan dy="1em" x="3">Aide à domicile</tspan>
</text>
<ellipse cx="-3" cy="19" fill="#007468" height="6" rx="3" ry="3" stroke="#007468" stroke-width="1px" style="cursor: default;" visibility="visible" width="6"/>
<g focusable="true" height="13" preserveAspectRatio="none" transform="translate(0,3) scale(0,0.13)" width="0"/>
</g>
<g focusable="true" height="100" preserveAspectRatio="none" transform="translate(-317,19) scale(1,1)" visibility="visible" width="100">
<rect fill="rgb(252,235,192)" fill-opacity="0" height="25" rx="3.75" ry="3.75" stroke="rgb(241,163,39)" stroke-opacity="0" stroke-width="1px" width="76" x="-2" y="-3"/>
<line stroke="#007468" stroke-opacity="1" stroke-width="1px" style="cursor: move;" x1="0" x2="72" y1="19" y2="19"/>
<text fill="rgb(82,92,97)" font-family="verdana" font-size="10.75" font-style="normal" font-weight="normal" style="cursor: move;" visibility="visible" x="3" y="3">
<a target="_blank" xlink:href="http://unemaisonenplus.be"><tspan dy="1em" x="3">Maison en +</tspan></a>
</text>
<ellipse cx="3" cy="3" fill="rgb(224,229,239)" height="6" rx="3" ry="3" stroke="rgb(2,59,185)" stroke-width="1px" style="cursor: default;" visibility="hidden" width="6"/>
<g focusable="true" height="13" preserveAspectRatio="none" transform="translate(0,3) scale(0,0.13)" width="0"/>
</g>
<g focusable="true" height="100" preserveAspectRatio="none" transform="translate(194,194) scale(1,1)" visibility="visible" width="100">
<rect fill="rgb(252,235,192)" fill-opacity="0" height="25" rx="3.75" ry="3.75" stroke="rgb(241,163,39)" stroke-opacity="0" stroke-width="1px" style="cursor: move;" width="89" x="-2" y="-3"/>
<line stroke="#007468" stroke-opacity="1" stroke-width="1px" style="cursor: move;" x1="0" x2="95" y1="19" y2="19"/>
<text fill="rgb(0, 0, 0)" font-family="verdana" font-size="10.75" font-style="normal" font-weight="normal" style="cursor: move;" visibility="visible" x="3" y="3">
<a target="_blank" xlink:href="https://solidarite-savoir.be/"><tspan dy="1em" x="3">Solidarité Savoir</tspan></a>
</text>
<g focusable="true" height="9" preserveAspectRatio="none" transform="translate(0,3) scale(0,0.09)" width="0"/>
<ellipse cx="3" cy="3" fill="#0a0a08" height="6" rx="3" ry="3" stroke="rgb(2,59,185)" stroke-width="1px" style="cursor: default;" visibility="hidden" width="6"/>
</g>
<g focusable="true" height="100" preserveAspectRatio="none" transform="translate(-173,48) scale(1,1)" visibility="visible" width="100">
<!-- <rect fill="rgb(252,235,192)" fill-opacity="0" height="25" rx="3.75" ry="3.75" stroke="rgb(241,163,39)" stroke-opacity="0" stroke-width="1px" style="cursor: move;" width="60" x="-2" y="-3"/> -->
<!-- <line stroke="#007468" stroke-opacity="1" stroke-width="1px" style="cursor: move;" x1="0" x2="56" y1="19" y2="19"/> -->
<!-- <text fill="rgb(0, 0, 0)" font-family="verdana" font-size="10.75" font-style="normal" font-weight="bold" style="cursor: move;" visibility="visible" x="3" y="3"> -->
<!-- <tspan dy="1em" x="3">Noeud 1</tspan> -->
<!-- </text> -->
<ellipse cx="3" cy="3" fill="#0a0a08" height="6" rx="3" ry="3" stroke="rgb(2,59,185)" stroke-width="1px" style="cursor: default;" visibility="hidden" width="6"/>
<g focusable="true" height="13" preserveAspectRatio="none" transform="translate(0,3) scale(0,0.13)" width="0"/>
</g>
<g focusable="true" height="100" preserveAspectRatio="none" transform="translate(-173,77) scale(1,1)" visibility="visible" width="100">
<!-- <rect fill="rgb(252,235,192)" fill-opacity="0" height="25" rx="3.75" ry="3.75" stroke="rgb(241,163,39)" stroke-opacity="0" stroke-width="1px" style="cursor: move;" width="60" x="-2" y="-3"/> -->
<!-- <line stroke="#007468" stroke-opacity="1" stroke-width="1px" style="cursor: move;" x1="0" x2="56" y1="19" y2="19"/> -->
<!-- <text fill="rgb(0, 0, 0)" font-family="verdana" font-size="10.75" font-style="normal" font-weight="bold" style="cursor: move;" visibility="visible" x="3" y="3"> -->
<!-- <tspan dy="1em" x="3">Noeud 2</tspan> -->
<!-- </text> -->
<ellipse cx="3" cy="3" fill="#0a0a08" height="6" rx="3" ry="3" stroke="rgb(2,59,185)" stroke-width="1px" style="cursor: default;" visibility="hidden" width="6"/>
<g focusable="true" height="13" preserveAspectRatio="none" transform="translate(0,3) scale(0,0.13)" width="0"/>
</g>
<g focusable="true" height="100" preserveAspectRatio="none" transform="translate(-173,106) scale(1,1)" visibility="visible" width="100">
<!-- <rect fill="rgb(252,235,192)" fill-opacity="0" height="25" rx="3.75" ry="3.75" stroke="rgb(241,163,39)" stroke-opacity="0" stroke-width="1px" style="cursor: move;" width="60" x="-2" y="-3"/> -->
<!-- <line stroke="#007468" stroke-opacity="1" stroke-width="1px" style="cursor: move;" x1="0" x2="56" y1="19" y2="19"/> -->
<!-- <text fill="rgb(0, 0, 0)" font-family="verdana" font-size="10.75" font-style="normal" font-weight="bold" style="cursor: move;" visibility="visible" x="3" y="3"> -->
<!-- <tspan dy="1em" x="3">Noeud 3</tspan> -->
<!-- </text> -->
<ellipse cx="3" cy="3" fill="#0a0a08" height="6" rx="3" ry="3" stroke="rgb(2,59,185)" stroke-width="1px" style="cursor: default;" visibility="hidden" width="6"/>
<g focusable="true" height="13" preserveAspectRatio="none" transform="translate(0,3) scale(0,0.13)" width="0"/>
</g>
<g focusable="true" height="100" preserveAspectRatio="none" transform="translate(-206,135) scale(1,1)" visibility="visible" width="100">
<rect fill="rgb(252,235,192)" fill-opacity="0" height="25" rx="3.75" ry="3.75" stroke="rgb(241,163,39)" stroke-opacity="0" stroke-width="1px" style="cursor: move;" width="93" x="-2" y="-3"/>
<line stroke="#007468" stroke-opacity="1" stroke-width="1px" style="cursor: move;" x1="0" x2="89" y1="19" y2="19"/>
<text fill="rgb(0, 0, 0)" font-family="verdana" font-size="10.75" font-style="normal" font-weight="bold" style="cursor: move;" visibility="visible" x="3" y="3">
<tspan dy="1em" x="3">Service Social</tspan>
</text>
<ellipse cx="3" cy="3" fill="#0a0a08" height="6" rx="3" ry="3" stroke="rgb(2,59,185)" stroke-width="1px" style="cursor: default;" visibility="hidden" width="6"/>
<g focusable="true" height="13" preserveAspectRatio="none" transform="translate(0,3) scale(0,0.13)" width="0"/>
</g>
<rect fill="#CC0033" fill-opacity="0.4" height="6" rx="0" ry="0" stroke="#FF9933" stroke-opacity="0.4" stroke-width="1px" visibility="hidden" width="50" x="-202" y="-119"/>
</svg>
